<svg width="35" height="40" viewBox="0 0 35 40" fill="none" xmlns="http://www.w3.org/2000/svg">
<g id="content" clip-path="url(#clip0_1527_6953)">
<path id="Vector" d="M34.3002 10.1963L17.3275 0.392578L0.342041 10.1963V29.8036L17.3275 39.6073V20.0506L34.3002 10.1963Z" fill="#F0F6F6"/>
<path id="Vector_2" d="M0.342041 29.7402L17.3275 39.5438V19.9872L0.342041 10.1328V29.7402Z" fill="#7BBE31"/>
<path id="Vector_3" d="M34.6294 9.99368L17.3019 0L0.0378418 9.96834V10.361V29.9683L17.0106 39.772L17.3526 39.9747L17.6946 39.772L34.5027 30.0697L34.6294 29.9683V10.3863V9.99368ZM17.3273 0.835977L25.307 5.43382L9.00556 14.7688L1.02577 10.171L17.3273 0.835977ZM16.9853 39.0627L0.683833 29.6517V10.779L16.9853 20.19V39.0627ZM24.243 15.6681L17.3273 19.658L9.3475 15.0475L25.649 5.63648L33.6287 10.247L24.243 15.6681Z" fill="#323535"/>
<path id="Vector_4" d="M10.5637 20.0258L7.40981 18.2018C7.2605 18.1126 7.08977 18.0654 6.91581 18.0654C6.74185 18.0654 6.57112 18.1126 6.42181 18.2018C6.2496 18.3271 6.11173 18.4937 6.02096 18.6863C5.93019 18.8789 5.88949 19.0913 5.90253 19.3038C5.90829 19.7372 6.01697 20.163 6.21957 20.5462C6.42217 20.9294 6.71287 21.2589 7.0678 21.5077L10.2217 23.319C10.3928 23.4256 10.5901 23.4826 10.7917 23.4837C10.9389 23.4849 11.0835 23.4455 11.2097 23.3697C11.3819 23.2444 11.5198 23.0778 11.6105 22.8852C11.7013 22.6926 11.742 22.4802 11.729 22.2677C11.7303 21.8277 11.625 21.3939 11.4221 21.0034C11.2191 20.613 10.9246 20.2775 10.5637 20.0258ZM10.8677 22.7364C10.779 22.7364 10.6397 22.7364 10.5637 22.7364L7.40981 20.9124C7.1589 20.7249 6.95423 20.4825 6.81152 20.2036C6.66881 19.9248 6.59183 19.617 6.58647 19.3038C6.58647 18.9998 6.67514 18.8352 6.75114 18.7845C6.80517 18.7692 6.86207 18.767 6.91712 18.778C6.97217 18.789 7.0238 18.813 7.0678 18.8478L7.2831 18.9618C7.31854 19.3277 7.43325 19.6816 7.61916 19.9987C7.80508 20.3159 8.05781 20.5888 8.35978 20.7984L11.045 22.3437C11.0577 22.5464 10.9817 22.6857 10.893 22.7364H10.8677Z" fill="#323535"/>
</g>
<defs>
<clipPath id="clip0_1527_6953">
<rect width="34.6422" height="40" fill="white"/>
</clipPath>
</defs>
</svg>
